<svg width="22" height="22" fill="none" xmlns="http://www.w3.org/2000/svg"><path fill-rule="evenodd" clip-rule="evenodd" d="M11.014.04a11.003 11.003 0 0 0-3.478 21.445c.547.102.75-.243.75-.533V19.08c-3.06.675-3.709-1.473-3.709-1.473a2.945 2.945 0 0 0-1.222-1.614c-.993-.675.08-.675.08-.675a2.316 2.316 0 0 1 1.682 1.134 2.35 2.35 0 0 0 3.202.92 2.337 2.337 0 0 1 .675-1.473c-2.445-.277-5.011-1.223-5.011-5.438a4.255 4.255 0 0 1 1.127-2.95A4.005 4.005 0 0 1 5.219 4.6s.925-.297 3.026 1.128a10.408 10.408 0 0 1 5.511 0c2.1-1.425 3.02-1.128 3.02-1.128.404.92.445 1.96.114 2.91a4.255 4.255 0 0 1 1.128 2.952c0 4.229-2.573 5.154-5.025 5.404a2.6 2.6 0 0 1 .75 2.026v3.02c0 .357.196.634.756.533A11.01 11.01 0 0 0 11.014 0v.04Z" fill="#34495E"/></svg>