<svg width="23" height="18" viewBox="0 0 28 23" xmlns="http://www.w3.org/2000/svg">
<path id="twitterIcon" d="M19.8842 4.48105C19.8977 4.67634 19.8977 4.87163 19.8977 5.06872C19.8977 11.074 15.326 18 6.96646 18V17.9964C4.49702 18 2.07887 17.2926 0 15.9589C0.359077 16.0021 0.719955 16.0237 1.08173 16.0246C3.1282 16.0264 5.11618 15.3398 6.72618 14.0753C4.7814 14.0384 3.07601 12.7704 2.48024 10.9192C3.1615 11.0506 3.86346 11.0236 4.53211 10.841C2.41185 10.4126 0.886444 8.5497 0.886444 6.38623C0.886444 6.36643 0.886444 6.34754 0.886444 6.32864C1.5182 6.68051 2.22556 6.8758 2.94911 6.8974C0.95214 5.56279 0.336579 2.90615 1.5425 0.829084C3.84996 3.6684 7.25444 5.3945 10.9091 5.57718C10.5428 3.99868 11.0432 2.34459 12.2239 1.23496C14.0544 -0.485733 16.9333 -0.397539 18.654 1.43205C19.6719 1.23136 20.6474 0.857882 21.5401 0.328715C21.2009 1.38075 20.4908 2.27439 19.5423 2.84226C20.4431 2.73606 21.3233 2.49488 22.1521 2.1268C21.5419 3.04114 20.7734 3.83759 19.8842 4.48105Z" />
</svg>
