<svg width="22" height="16" viewBox="0 0 22 16" xmlns="http://www.w3.org/2000/svg">
<path id="youtubeIcon" d="M21.5418 2.41225C21.4162 1.9462 21.1704 1.52129 20.8291 1.17998C20.4878 0.838663 20.0629 0.592898 19.5968 0.467238C17.88 3.4542e-07 11 0 11 0C11 0 4.11821 1.7271e-07 2.405 0.459994C1.93792 0.585947 1.51225 0.83269 1.17081 1.1754C0.829369 1.51811 0.584208 1.9447 0.459992 2.41225C-1.20897e-06 4.12726 0 7.70761 0 7.70761C0 7.70761 -1.20897e-06 11.2879 0.459992 13.003C0.585318 13.4692 0.830973 13.8943 1.17234 14.2356C1.5137 14.577 1.93879 14.8226 2.405 14.948C4.12002 15.408 11 15.408 11 15.408C11 15.408 17.8818 15.408 19.5968 14.948C20.0629 14.8223 20.4878 14.5766 20.8291 14.2352C21.1704 13.8939 21.4162 13.469 21.5418 13.003C22 11.2879 22 7.70761 22 7.70761C22 7.70761 21.9946 4.12726 21.5418 2.41225ZM8.79964 11.0072V4.40797L14.5151 7.70761L8.79964 11.0072Z" />
</svg>
