<svg xmlns="http://www.w3.org/2000/svg" version="1.1" width="300px" height="201px" style="shape-rendering:geometricPrecision; text-rendering:geometricPrecision; image-rendering:optimizeQuality; fill-rule:evenodd; clip-rule:evenodd" xmlns:xlink="http://www.w3.org/1999/xlink"><g><path style="opacity:1" fill="#80eec0" d="M 106.5,-0.5 C 110.833,-0.5 115.167,-0.5 119.5,-0.5C 123.346,1.15508 126.846,3.48842 130,6.5C 139.516,22.6767 149.016,38.8434 158.5,55C 135.133,95.5658 111.633,136.066 88,176.5C 84.8148,185.705 86.6482,193.705 93.5,200.5C 67.1667,200.5 40.8333,200.5 14.5,200.5C 7.83333,197.167 2.83333,192.167 -0.5,185.5C -0.5,181.167 -0.5,176.833 -0.5,172.5C 31.5775,115.853 64.5775,59.6864 98.5,4C 101.099,2.20496 103.766,0.704964 106.5,-0.5 Z"/></g><g><path style="opacity:1" fill="#00dc82" d="M 299.5,176.5 C 299.5,180.5 299.5,184.5 299.5,188.5C 297.167,194.167 293.167,198.167 287.5,200.5C 232.833,200.5 178.167,200.5 123.5,200.5C 113.558,195.611 109.724,187.611 112,176.5C 137.748,132.002 163.748,87.669 190,43.5C 200.333,32.8333 210.667,32.8333 221,43.5C 247.193,87.8965 273.36,132.23 299.5,176.5 Z"/></g></svg>
