<?xml version="1.0" encoding="UTF-8"?>
<!DOCTYPE svg PUBLIC "-//W3C//DTD SVG 1.1//EN" "http://www.w3.org/Graphics/SVG/1.1/DTD/svg11.dtd">
<svg xmlns="http://www.w3.org/2000/svg" version="1.1" width="1920px" height="1328px" style="shape-rendering:geometricPrecision; text-rendering:geometricPrecision; image-rendering:optimizeQuality; fill-rule:evenodd; clip-rule:evenodd" xmlns:xlink="http://www.w3.org/1999/xlink">
<g><path style="opacity:0.999" fill="#ff0000" d="M 815.5,4.5 C 1029.96,2.16612 1244.3,6.33278 1458.5,17C 1512.28,19.9064 1565.95,24.2398 1619.5,30C 1658.8,32.9094 1696.47,42.2428 1732.5,58C 1794.77,89.278 1836.61,138.111 1858,204.5C 1875.2,276.567 1886.53,349.567 1892,423.5C 1905.95,598.647 1904.28,773.647 1887,948.5C 1881.46,1003.27 1873.13,1057.6 1862,1111.5C 1841.75,1187.18 1795.92,1241.02 1724.5,1273C 1702.59,1281.78 1679.93,1287.78 1656.5,1291C 1613.03,1297.73 1569.37,1302.73 1525.5,1306C 1416.98,1314.1 1308.31,1319.1 1199.5,1321C 950.344,1326.45 701.344,1322.45 452.5,1309C 382.499,1305.24 312.832,1298.24 243.5,1288C 171.348,1275.2 116.181,1237.7 78,1175.5C 60.2857,1143.69 48.9524,1109.69 44,1073.5C 26.3945,967.569 16.7279,860.902 15,753.5C 11.7141,628.267 15.7141,503.267 27,378.5C 32.0164,324.052 40.0164,270.052 51,216.5C 70.8361,142.666 115.336,89.4993 184.5,57C 207.503,46.9976 231.503,40.6643 256.5,38C 320.878,28.5716 385.545,21.905 450.5,18C 572.223,10.6594 693.889,6.15938 815.5,4.5 Z"/></g>
<g><path style="opacity:1" fill="#ffc0c0" d="M 776.5,382.5 C 775.167,569.833 775.167,757.167 776.5,944.5C 776.44,945.043 776.107,945.376 775.5,945.5C 774.167,757.5 774.167,569.5 775.5,381.5C 776.107,381.624 776.44,381.957 776.5,382.5 Z"/></g>
<g><path style="opacity:1" fill="#fffefe" d="M 776.5,382.5 C 940.105,475.637 1103.44,569.304 1266.5,663.5C 1103.44,757.696 940.105,851.363 776.5,944.5C 775.167,757.167 775.167,569.833 776.5,382.5 Z"/></g>
</svg>
