<svg width="21" height="20" xmlns="http://www.w3.org/2000/svg"><path fill-rule="evenodd" clip-rule="evenodd" d="M10.244.038a10.233 10.233 0 0 0-3.235 19.945c.508.094.697-.226.697-.496v-1.74c-2.846.628-3.449-1.37-3.449-1.37a2.739 2.739 0 0 0-1.137-1.501c-.923-.628.075-.628.075-.628a2.155 2.155 0 0 1 1.565 1.055 2.186 2.186 0 0 0 2.977.854c.04-.516.263-1.002.629-1.37-2.275-.257-4.662-1.136-4.662-5.056a3.958 3.958 0 0 1 1.05-2.745 3.725 3.725 0 0 1 .1-2.708s.86-.276 2.814 1.05a9.68 9.68 0 0 1 5.126 0c1.954-1.326 2.808-1.05 2.808-1.05a3.7 3.7 0 0 1 .107 2.708 3.958 3.958 0 0 1 1.05 2.745c0 3.932-2.394 4.793-4.675 5.026a2.42 2.42 0 0 1 .698 1.884v2.808c0 .333.182.59.703.496A10.24 10.24 0 0 0 10.244 0v.038Z" fill="#fff"/></svg>