<svg width="18" height="18" fill="none" xmlns="http://www.w3.org/2000/svg"><path d="M2.583 15.718h12.854V2.282H6.143a.47.47 0 0 0-.234.104C4.813 3.424 3.737 4.478 2.66 5.516c-.059.052-.098.155-.098.26l.02 9.942ZM16.709 0C17.413 0 18 .519 18 1.141V16.86c0 .62-.567 1.14-1.291 1.14H1.29C.587 18 0 17.481 0 16.859V5.36c0-.45.157-.812.509-1.141L4.383.484c.332-.328.724-.467 1.213-.467h11.113V0ZM5.146 7.92c-.568 0-1.037-.416-1.037-.917 0-.502.47-.917 1.037-.917h1.741V4.53c0-.501.47-.916 1.037-.916s1.037.415 1.037.916v2.456c0 .501-.47.916-1.037.916H5.146v.017Z" fill="#fff"/></svg>