<svg width="29" height="25" fill="none" xmlns="http://www.w3.org/2000/svg"><path d="M9.057 24.394c10.88 0 16.834-9.388 16.834-17.515 0-.264 0-.528-.012-.793a12.336 12.336 0 0 0 2.954-3.193 11.628 11.628 0 0 1-3.404.973c1.223-.757 2.158-1.97 2.608-3.41a11.493 11.493 0 0 1-3.762 1.489C23.191.745 21.656 0 19.96 0c-3.265 0-5.919 2.761-5.919 6.158 0 .48.058.949.15 1.405C9.276 7.311 4.915 4.85 1.996 1.128A6.35 6.35 0 0 0 1.2 4.226c0 2.137 1.05 4.021 2.63 5.126a5.808 5.808 0 0 1-2.676-.769v.084c0 2.978 2.042 5.475 4.742 6.039a5.56 5.56 0 0 1-1.558.216 5.6 5.6 0 0 1-1.107-.108c.75 2.449 2.942 4.226 5.526 4.274-2.03 1.656-4.58 2.64-7.35 2.64-.472 0-.945-.023-1.407-.083a16.356 16.356 0 0 0 9.057 2.749Z" fill="#34495E"/></svg>