<svg width="23" height="18" fill="none" xmlns="http://www.w3.org/2000/svg"><path d="M19.884 4.481c.014.195.014.39.014.588C19.898 11.074 15.326 18 6.966 18v-.004A12.866 12.866 0 0 1 0 15.96a9.126 9.126 0 0 0 6.726-1.884A4.55 4.55 0 0 1 2.48 10.92a4.531 4.531 0 0 0 2.052-.078A4.545 4.545 0 0 1 .886 6.386V6.33a4.51 4.51 0 0 0 2.063.568A4.55 4.55 0 0 1 1.543.83a12.9 12.9 0 0 0 9.366 4.748 4.55 4.55 0 0 1 7.745-4.145A9.119 9.119 0 0 0 21.54.33a4.561 4.561 0 0 1-1.998 2.513 9.038 9.038 0 0 0 2.61-.715 9.233 9.233 0 0 1-2.268 2.354Z" fill="#fff"/></svg>